<svg width="18" height="18" xmlns="http://www.w3.org/2000/svg" xmlns:xlink="http://www.w3.org/1999/xlink" xml:space="preserve" overflow="hidden"><defs><clipPath id="clip0"><rect x="374" y="136" width="18" height="18"/></clipPath></defs><g clip-path="url(#clip0)" transform="translate(-374 -136)"><path d="M390.688 144.438 376.663 144.438 378.331 142.769C378.556 142.544 378.556 142.188 378.331 141.981 378.106 141.756 377.75 141.756 377.544 141.981L374.919 144.606C374.694 144.831 374.694 145.188 374.919 145.394L377.544 148.019C377.656 148.131 377.806 148.188 377.938 148.188 378.069 148.188 378.219 148.131 378.331 148.019 378.556 147.794 378.556 147.438 378.331 147.231L376.663 145.562 390.688 145.562C391.006 145.562 391.25 145.319 391.25 145 391.25 144.681 391.006 144.438 390.688 144.438Z"/></g></svg>